<?xml version="1.0" encoding="UTF-8" standalone="no"?>
<svg
   xmlns:dc="http://purl.org/dc/elements/1.1/"
   xmlns:cc="http://creativecommons.org/ns#"
   xmlns:rdf="http://www.w3.org/1999/02/22-rdf-syntax-ns#"
   xmlns:svg="http://www.w3.org/2000/svg"
   xmlns="http://www.w3.org/2000/svg"
   xmlns:sodipodi="http://sodipodi.sourceforge.net/DTD/sodipodi-0.dtd"
   xmlns:inkscape="http://www.inkscape.org/namespaces/inkscape"
   viewBox="63.17 213.37 81.53 69.97"
   version="1.1"
   id="svg14"
   sodipodi:docname="orchid-lang-icon.svg"
   inkscape:version="0.92.3 (2405546, 2018-03-11)">
  <metadata
     id="metadata20">
    <rdf:RDF>
      <cc:Work
         rdf:about="">
        <dc:format>image/svg+xml</dc:format>
        <dc:type
           rdf:resource="http://purl.org/dc/dcmitype/StillImage" />
      </cc:Work>
    </rdf:RDF>
  </metadata>
  <defs
     id="defs18" />
  <sodipodi:namedview
     pagecolor="#ffffff"
     bordercolor="#666666"
     borderopacity="1"
     objecttolerance="10"
     gridtolerance="10"
     guidetolerance="10"
     inkscape:pageopacity="0"
     inkscape:pageshadow="2"
     inkscape:window-width="1853"
     inkscape:window-height="1025"
     id="namedview16"
     showgrid="false"
     inkscape:zoom="8"
     inkscape:cx="26.411301"
     inkscape:cy="32.605479"
     inkscape:window-x="1987"
     inkscape:window-y="27"
     inkscape:window-maximized="1"
     inkscape:current-layer="g12" />
  <g
     style="stroke-width:4.8;stroke-miterlimit:4;stroke-dasharray:none;stroke:#c453b0;stroke-opacity:1"
     id="g12">
    <path
       style="fill:none;stroke:#c453b0;stroke-width:5;stroke-linecap:butt;stroke-linejoin:miter;stroke-miterlimit:4;stroke-dasharray:none;stroke-opacity:1"
       d="m 101.54911,246.67541 c -0.43277,-0.55352 -1.17829,-0.82728 -1.559306,-1.41755 -1.455048,-2.25307 -1.53755,-5.14292 -2.480331,-7.654 -0.316511,-0.84228 -0.543018,-1.74681 -1.063535,-2.48033 -0.222008,-0.31426 -0.567769,-0.51902 -0.849778,-0.78003 -0.332261,-0.30601 -0.59927,-0.70052 -0.992283,-0.92103 -0.685522,-0.38476 -1.487299,-0.55577 -2.268074,-0.63752 a 9.5170626,9.5170626 0 0 0 -3.260357,0.21226 c -1.683056,0.41701 -3.367611,1.07628 -4.748406,2.12632 -1.710056,1.29904 -2.830593,3.23635 -4.110135,4.96066 -1.605803,2.16232 -3.360861,4.27739 -4.465647,6.73297 -0.641271,1.42655 -1.085285,2.9761 -1.204539,4.53615 -0.051,0.66302 0.207006,1.31929 0.212257,1.98457 0.0067,0.78227 -0.369013,1.5713 -0.212257,2.33857 0.139504,0.68328 0.727523,1.19704 0.992282,1.84281 0.353262,0.86478 0.367512,1.85406 0.780026,2.69259 0.91653,1.86606 2.204322,3.57237 3.684871,5.03267 0.92853,0.91503 2.037067,1.6553 3.189105,2.26732 0.891029,0.47402 1.857061,0.81378 2.835093,1.06354 0.485266,0.12375 0.993782,0.132 1.488049,0.21225 0.900779,0.14776 1.780558,0.47477 2.693338,0.49652 1.048534,0.024 2.091069,-0.21226 3.118602,-0.42526 1.369545,-0.28426 2.825343,-0.44027 4.039633,-1.13404 1.042534,-0.59552 1.737057,-1.65606 2.598835,-2.49158 0.601517,-0.58352 1.491047,-0.97954 1.794807,-1.76106 0.16351,-0.41851 0.32551,-1.13329 -0.0705,-1.3463 -0.41026,-0.2205 -0.74552,0.63078 -1.20454,0.70878 -0.594017,0.0998 -1.252539,-0.0488 -1.772306,-0.35476 -0.534017,-0.31426 -0.887279,-0.88503 -1.204539,-1.41755 -0.402013,-0.67502 -0.723774,-1.4213 -0.850528,-2.19682 -0.168006,-1.02679 -0.045,-2.09482 0.141754,-3.1186 0.191257,-1.05004 0.340512,-2.20058 0.992283,-3.04735 0.582769,-0.75753 1.50905,-1.23605 2.409826,-1.55931 0.58202,-0.2085 1.43105,0.24901 1.84206,-0.21225 0.73878,-0.82878 0.27151,-2.25458 0,-3.33086 -0.0847,-0.33826 -0.28126,-0.64652 -0.49576,-0.92178 z m 23.74202,9.35505 c 0.87603,-0.39751 1.76256,-0.79727 2.55159,-1.34629 0.49501,-0.34426 0.99378,-0.71702 1.34704,-1.20454 0.83028,-1.14904 1.27354,-2.54633 1.70106,-3.89863 0.46501,-1.4708 0.87302,-2.99335 0.92103,-4.5354 0.0315,-1.02528 -0.23251,-2.04006 -0.42527,-3.04735 -0.31876,-1.67255 -0.57602,-3.38036 -1.20454,-4.96141 -0.42301,-1.06203 -1.06953,-2.02432 -1.70105,-2.97685 -0.62402,-0.94128 -1.19629,-1.95981 -2.05507,-2.69259 -0.26551,-0.2265 -0.64352,-0.28575 -0.92178,-0.49651 -0.84003,-0.63527 -1.31629,-1.69131 -2.19757,-2.26808 a 9.74282,9.74282 0 0 0 -3.96838,-1.48805 c -0.54002,-0.0743 -1.08754,0.20101 -1.62981,0.14176 -1.79781,-0.19726 -3.38786,-1.34779 -5.17367,-1.63055 -2.73009,-0.43127 -5.58843,-0.64503 -8.29227,-0.0705 -1.7273,0.36752 -3.55811,0.96229 -4.819654,2.19758 -1.050035,1.02678 -1.777559,2.50583 -1.913313,3.96763 -0.084,0.90228 0.232507,1.85256 0.708773,2.62283 1.047784,1.69356 3.140354,2.48183 4.464894,3.96913 0.95853,1.07704 1.84506,2.25008 2.48033,3.54387 0.34952,0.71027 0.78678,1.47905 0.70878,2.26732 -0.0577,0.58952 -0.89403,0.96904 -0.85053,1.56005 0.0817,1.09279 0.94353,2.27858 1.98457,2.62209 1.19253,0.39301 2.38882,-1.33804 3.61511,-1.06353 2.49758,0.55951 3.86188,3.36311 5.73994,5.10316 1.37254,1.2713 2.43383,2.93785 4.03963,3.89788 0.53252,0.31801 1.15729,0.48827 1.77231,0.56702 a 3.8206255,3.8206255 0 0 0 1.27504,-0.0712 c 0.64427,-0.13801 1.24429,-0.43652 1.84356,-0.70878 z"
       id="path2"
       inkscape:connector-curvature="0" />
    <path
       style="fill:none;stroke:#c453b0;stroke-width:5;stroke-linecap:butt;stroke-linejoin:miter;stroke-miterlimit:4;stroke-dasharray:none;stroke-opacity:1"
       d="m 85.531579,234.372 c 0.0495,-0.98553 -0.01575,-1.98381 0.150005,-2.95659 0.129005,-0.75528 0.318761,-1.51505 0.651772,-2.20508 0.682522,-1.41529 1.446047,-2.91984 2.706089,-3.85887 0.423763,-0.31501 0.982532,-0.41027 1.503049,-0.50102 0.691523,-0.12 1.404046,-0.0128 2.105319,-0.0503 1.82406,-0.0967 3.64587,-0.64802 5.462429,-0.45077 1.80756,0.19576 3.474118,1.06879 5.211918,1.60356 m 26.67688,26.03935 c 0.25125,0.60152 0.38626,1.08604 0.68552,1.57355 0.26101,0.42527 0.73652,0.70353 0.95253,1.15279 0.17701,0.36901 0.23101,0.79353 0.25051,1.20304 0.021,0.45302 -0.084,0.90378 -0.15001,1.35305 -0.0945,0.63827 -0.0675,1.32454 -0.35101,1.90431 -0.26551,0.54227 -0.77627,0.92628 -1.20304,1.35304 -0.28501,0.28501 -0.55727,0.59402 -0.90228,0.80253 -0.61127,0.36751 -1.31329,0.57302 -2.00406,0.75077 -0.55652,0.14326 -1.13029,0.24526 -1.70406,0.25051 -0.92628,0.009 -1.84131,-0.20926 -2.75634,-0.35026 -0.92253,-0.1425 -1.85631,-0.25201 -2.75634,-0.50102 -1.5488,-0.42976 -3.0076,-1.13628 -4.51065,-1.70405 m -28.441679,9.01454 c 0.334511,0.83478 0.444015,1.88182 1.029034,2.61159 0.390763,0.48827 0.962282,0.84978 1.553301,1.05303 1.900562,0.65253 4.016382,0.61277 6.014447,0.40052 a 9.4233095,9.4233095 0 0 0 3.157604,-0.90228 c 1.455053,-0.71853 2.691843,-1.83081 3.907633,-2.90635 0.75677,-0.66752 1.39429,-1.4588 2.09106,-2.18782"
       id="path4"
       inkscape:connector-curvature="0" />
    <path
       style="fill:none;stroke:#c453b0;stroke-width:5;stroke-linecap:butt;stroke-linejoin:miter;stroke-miterlimit:4;stroke-dasharray:none;stroke-opacity:1"
       d="m 102.9314,264.46449 c 0.42527,0.63752 0.72753,1.3778 1.27504,1.91406 0.49052,0.47777 1.08079,0.90078 1.73706,1.09804 0.57677,0.17326 1.22704,0.20026 1.80756,0.0352 0.60752,-0.1725 0.98553,-0.85503 1.5938,-1.02753 0.53477,-0.15076 1.13404,0.195 1.6658,0.0353 0.57752,-0.17251 0.99229,-0.68477 1.48805,-1.02753"
       id="path6"
       inkscape:connector-curvature="0" />
    <path
       style="fill:none;stroke:#c453b0;stroke-width:5;stroke-linecap:butt;stroke-linejoin:miter;stroke-miterlimit:4;stroke-dasharray:none;stroke-opacity:1"
       d="m 111.46668,256.92674 c -0.0413,0.34277 0.58652,0.97204 1.07628,1.17754 0.29476,0.12301 0.66378,0.09 0.95703,-0.036 0.64728,-0.27601 0.88053,-1.16629 1.51505,-1.47005 0.25726,-0.12375 0.59402,-0.2325 0.85053,-0.1065 0.20851,0.10275 0.31051,0.37351 0.35401,0.60227 0.0878,0.45751 -0.0998,0.93003 -0.21225,1.38229 -0.11251,0.44702 -0.28126,0.87828 -0.45752,1.3043 -0.34501,0.83703 -0.80477,1.6238 -1.17304,2.45183 -0.20175,0.45451 -0.39301,0.91503 -0.56701,1.38154 -0.17551,0.47252 -0.0368,1.17079 -0.48152,1.43255 -0.34951,0.20551 -0.59327,0.28651 -0.85128,0.46052 m -10.7156,-2.03482 c 0.39002,0.33076 0.95328,0.67127 1.20529,1.04253 m 8.50003,-7.588 c 0,0 0.18225,-1.47979 0.65477,-1.75505 0.58202,-0.33826 1.99357,1.18879 2.92735,0.80027 0.26625,-0.111 0.40501,-0.46501 0.42601,-0.75227 0.063,-0.83778 -0.46352,-1.63731 -0.90228,-2.35508 -0.50852,-0.83253 -1.26604,-1.48805 -1.95456,-2.18032 -0.42077,-0.42301 -0.91428,-0.77178 -1.32755,-1.20229 -0.62102,-0.64727 -1.16554,-1.42655 -1.72205,-2.06857"
       id="path8"
       inkscape:connector-curvature="0" />
    <path
       style="fill:none;stroke:#c453b0;stroke-width:5;stroke-linecap:butt;stroke-linejoin:miter;stroke-miterlimit:4;stroke-dasharray:none;stroke-opacity:1"
       d="m 102.04487,250.92805 c 0.39602,0.24751 0.72678,0.66752 1.18729,0.74402 0.38251,0.0637 0.74778,-0.30376 1.13404,-0.26551 0.48376,0.0472 0.90678,0.84303 1.32904,0.60227 0.33001,-0.18825 -0.0525,-0.79727 0.12376,-1.13403 0.258,-0.49352 1.04028,-0.58652 1.25854,-1.09879 0.192,-0.45152 -0.0712,-1.47005 -0.0712,-1.47005"
       id="path10"
       inkscape:connector-curvature="0" />
    <path
       style="fill:#c453b0;fill-opacity:1;stroke:#c453b0;stroke-width:0.26205647;stroke-miterlimit:4;stroke-dasharray:none;stroke-opacity:1"
       d="m 39.19608,30.676984 c -0.320155,-0.244737 -0.370243,-0.310656 -0.58477,-0.76958 -0.129043,-0.276054 -0.306823,-0.719204 -0.395065,-0.984779 -0.173825,-0.523142 -0.601229,-2.21559 -0.567927,-2.248893 0.02302,-0.02303 0.576121,0.630133 0.937415,1.107006 0.409502,0.540503 0.856299,1.251604 1.162387,1.850001 l 0.294533,0.575809 -0.215683,0.372536 c -0.118626,0.204896 -0.230321,0.370968 -0.248213,0.369051 -0.01789,-0.0019 -0.190096,-0.123936 -0.382677,-0.271151 z"
       id="path833"
       inkscape:connector-curvature="0"
       transform="translate(63.17,213.37)" />
    <path
       style="fill:#c453b0;fill-opacity:1;stroke:#c453b0;stroke-width:0.26205647;stroke-miterlimit:4;stroke-dasharray:none;stroke-opacity:1"
       d="m 61.794821,46.40753 c -0.216196,-0.02712 -0.864786,-0.127667 -1.44131,-0.223429 l -1.048226,-0.174113 0.497907,-0.03819 c 1.056132,-0.08101 1.803806,-0.307595 3.377485,-1.023556 1.174173,-0.534201 1.837429,-0.873981 2.420104,-1.239796 0.249947,-0.156921 0.460489,-0.278881 0.46787,-0.271021 0.0074,0.0079 -0.01746,0.297312 -0.05521,0.643227 l -0.06863,0.628935 -0.594375,0.563306 c -0.640685,0.607195 -0.784093,0.693078 -1.493315,0.894313 -0.899816,0.255314 -1.440555,0.318327 -2.062298,0.240325 z"
       id="path835"
       inkscape:connector-curvature="0"
       transform="translate(63.17,213.37)" />
    <path
       style="fill:#c453b0;fill-opacity:1;stroke:#c453b0;stroke-width:0.04632548;stroke-miterlimit:4;stroke-dasharray:none;stroke-opacity:1"
       d="m 56.891363,45.495082 c -0.377054,-0.127477 -1.394031,-0.513498 -1.419738,-0.5389 -0.0037,-0.0037 0.0023,-0.05341 0.01348,-0.110459 l 0.02029,-0.103728 0.02358,0.01558 c 0.136533,0.09022 0.401536,0.255379 0.505365,0.314962 0.234669,0.134668 0.566637,0.294091 0.810695,0.389326 0.0586,0.02287 0.108286,0.0432 0.11041,0.04518 0.0081,0.0076 -0.0241,0.0016 -0.06408,-0.01196 z"
       id="path841"
       inkscape:connector-curvature="0"
       transform="translate(63.17,213.37)" />
    <path
       style="fill:#c453b0;fill-opacity:1;stroke:#c453b0;stroke-width:0.01953125;stroke-miterlimit:4;stroke-dasharray:none;stroke-opacity:1"
       d="m 59.093801,46.004022 c -0.964672,-0.147862 -1.375825,-0.238662 -2.016449,-0.44532 -0.08083,-0.02607 -0.10192,-0.03425 -0.100168,-0.03881 0.0012,-0.0032 0.0036,-0.0058 0.0052,-0.0058 0.0017,0 0.02916,0.0095 0.0611,0.02106 0.349372,0.126655 0.77091,0.239271 1.171368,0.312937 0.353659,0.06506 0.650741,0.09974 0.960347,0.112112 l 0.116596,0.0047 -0.0023,0.01388 c -0.0013,0.0076 -0.0023,0.0231 -0.0023,0.03438 -2.4e-5,0.01128 -0.0014,0.02031 -0.003,0.02007 -0.0016,-2.42e-4 -0.08731,-0.01337 -0.19043,-0.02918 z"
       id="path845"
       inkscape:connector-curvature="0"
       transform="translate(63.17,213.37)" />
  </g>
</svg>
